<svg xmlns="http://www.w3.org/2000/svg" xmlns:xlink="http://www.w3.org/1999/xlink" width="512" height="442" viewBox="0 0 512 442">
  <defs>
    <clipPath id="clip-path">
      <rect id="Ret칙ngulo_1" data-name="Ret칙ngulo 1" width="512" height="442" transform="translate(448 219)" fill="#fff" stroke="#707070" stroke-width="1"/>
    </clipPath>
  </defs>
  <g id="Grupo_de_m치scara_1" data-name="Grupo de m치scara 1" transform="translate(-448 -219)" clip-path="url(#clip-path)">
    <g id="_3986735-online-shop-store-store-icon_112335" data-name="3986735-online-shop-store-store-icon_112335" transform="translate(458.019 194.019)">
      <g id="Grupo_2" data-name="Grupo 2">
        <g id="Grupo_1" data-name="Grupo 1">
          <path id="Caminho_1" data-name="Caminho 1" d="M490.921,161.837,444.686,70.724V34.589a9.608,9.608,0,0,0-9.609-9.609H56.881a9.61,9.61,0,0,0-9.609,9.609V70.728L1.04,161.837A9.616,9.616,0,0,0,0,166.185v23.638a56.965,56.965,0,0,0,47.273,56.054V447.759H37.44a9.609,9.609,0,0,0,0,19.217H56.807c.024,0,.049,0,.074,0H454.52a9.609,9.609,0,1,0,0-19.217h-9.833V245.877a56.964,56.964,0,0,0,47.274-56.054V166.185A9.6,9.6,0,0,0,490.921,161.837ZM66.49,44.2H425.468v19.22H66.49ZM302.814,165.214l-8.38-82.579h57.888L378.2,167.614v22.208a37.666,37.666,0,0,1-75.333,0V166.185A9.643,9.643,0,0,0,302.814,165.214Zm-19.168,1.457v23.152h0a37.665,37.665,0,0,1-75.33,0V166.671l8.531-84.035h58.273ZM197.53,82.636l-8.383,82.579a9.332,9.332,0,0,0-.05.97v23.638a37.665,37.665,0,0,1-75.33,0V167.615l25.874-84.979ZM19.217,189.823v-21.34L62.781,82.635h56.771l-24.586,80.75a9.625,9.625,0,0,0-.417,2.8v23.638a37.666,37.666,0,0,1-75.332,0Zm367.818,257.94H329.383V380.5h9.61a9.609,9.609,0,0,0,0-19.217h-9.61V294.025h57.653Zm38.433,0H406.251V284.416a9.609,9.609,0,0,0-9.609-9.609H95.317a9.608,9.608,0,0,0-9.609,9.609V418.935a9.608,9.608,0,0,0,9.609,9.609H310.165v19.219H66.49V245.877a56.986,56.986,0,0,0,37.668-24.459,56.833,56.833,0,0,0,94.547,0,56.833,56.833,0,0,0,94.547,0,56.836,56.836,0,0,0,94.55,0,56.982,56.982,0,0,0,37.666,24.459V447.763ZM198.64,294.025h33.477l-18.271,18.268a9.609,9.609,0,1,0,13.588,13.59l31.861-31.857h50.87v115.3H104.926V387.739Zm-93.714,66.536V294.025h66.536ZM472.744,189.823a37.665,37.665,0,0,1-75.331,0V166.185a9.593,9.593,0,0,0-.417-2.8L372.41,82.635h56.77l43.564,85.848Z" fill="#fff"/>
          <path id="Caminho_2" data-name="Caminho 2" d="M200.958,348.377a9.581,9.581,0,0,0,6.775-2.794l.16-.159A9.609,9.609,0,1,0,194.345,331.8l-.16.159a9.608,9.608,0,0,0,6.774,16.422Z" fill="#fff"/>
          <path id="Caminho_3" data-name="Caminho 3" d="M9.835,447.759H9.609a9.609,9.609,0,0,0,0,19.217h.227a9.609,9.609,0,0,0,0-19.217Z" fill="#fff"/>
          <path id="Caminho_4" data-name="Caminho 4" d="M482.352,447.763h-.227a9.609,9.609,0,1,0,0,19.217h.227a9.609,9.609,0,1,0,0-19.217Z" fill="#fff"/>
        </g>
      </g>
    </g>
  </g>
</svg>
